<svg width="24" height="25" viewBox="0 0 24 25" fill="none" xmlns="http://www.w3.org/2000/svg">
<g clip-path="url(#clip0_359_732)">
<path d="M15.6255 10.8455C16.2256 9.94581 16.9958 9.17214 17.8928 8.56808" stroke="currentColor" stroke-width="1.5" stroke-miterlimit="10" stroke-linecap="round"/>
<path d="M6.60767 7.00553C4.6098 8.22009 3.09963 10.0952 2.33873 12.306C1.57585 14.5314 1.60471 16.9521 2.42043 19.1587C2.63432 19.739 3.01883 20.2411 3.52341 20.5987C4.02129 20.9531 4.61781 21.1424 5.22894 21.14H6.25022V22.0183C6.24616 22.2404 6.28608 22.4612 6.36767 22.6679C6.44926 22.8745 6.57092 23.063 6.72563 23.2225C6.88035 23.3819 7.06508 23.5092 7.26918 23.597C7.47328 23.6848 7.69273 23.7314 7.9149 23.734C8.12924 23.7308 8.34078 23.6849 8.53718 23.5989C8.73357 23.513 8.91087 23.3888 9.05873 23.2336C9.36282 22.9186 9.53146 22.497 9.52852 22.0591V21.14H13.92V22.0183C13.9067 22.3504 13.9943 22.6788 14.1714 22.9601C14.3485 23.2415 14.6067 23.4625 14.9119 23.5941C15.2172 23.7257 15.5552 23.7617 15.8813 23.6974C16.2074 23.633 16.5064 23.4713 16.7387 23.2336C17.0383 22.9157 17.2062 22.496 17.2085 22.0591V21.14H19.2511C19.4764 21.1419 19.7006 21.1074 19.9149 21.0379C20.3658 20.8957 20.7595 20.613 21.0383 20.2311C21.3162 19.8402 21.4661 19.3728 21.4672 18.8932H22.6213C22.7838 18.8932 22.9397 18.8286 23.0546 18.7137C23.1695 18.5988 23.234 18.4429 23.234 18.2804V15.7374C23.234 15.5749 23.1695 15.4191 23.0546 15.3042C22.9397 15.1892 22.7838 15.1247 22.6213 15.1247H21.4877C21.4292 13.8855 21.1454 12.6673 20.6502 11.5298C21.3178 10.4835 21.6722 9.26798 21.6715 8.02681C21.6748 7.74 21.6578 7.45332 21.6204 7.16894C20.4589 7.24028 19.3391 7.62884 18.383 8.29234C17.5282 7.48275 16.5356 6.83251 15.4519 6.37234" stroke="currentColor" stroke-width="1.5" stroke-linejoin="round"/>
<path d="M7.9966 9.43617C7.16652 8.92959 6.52461 8.16576 6.16851 7.26085C5.81511 6.3642 5.77551 5.37435 6.05617 4.45234C6.33883 3.52472 6.92057 2.71675 7.71064 2.15447C8.51374 1.57607 9.47838 1.26485 10.4681 1.26485C11.4578 1.26485 12.4224 1.57607 13.2255 2.15447C14.0156 2.71675 14.5973 3.52472 14.88 4.45234C15.1607 5.37435 15.1211 6.3642 14.7677 7.26085C14.4116 8.16576 13.7697 8.92959 12.9396 9.43617" stroke="currentColor" stroke-width="1.5" stroke-miterlimit="10"/>
<path d="M6.43404 9.43617H14.4817" stroke="currentColor" stroke-width="1.5" stroke-miterlimit="10" stroke-linecap="round"/>
<path d="M10.1106 7.90426H10.8153V6.88298H12V6.53574H10.8153V6.10681H12V5.71872H10.9787L12.4392 3.44128H11.6221L10.9787 4.61574C10.7745 5.03447 10.6723 5.22851 10.4783 5.56553C10.2945 5.22851 10.1923 5.04468 9.97787 4.61574L9.29362 3.44128H8.46638L9.95745 5.71872H8.93617V6.10681H10.1413V6.53574H8.93617V6.91362H10.1413L10.1106 7.90426Z" fill="currentColor"/>
<path d="M17.1064 13.9195C17.5407 13.9195 17.8927 13.5675 17.8927 13.1332C17.8927 12.6989 17.5407 12.3468 17.1064 12.3468C16.6721 12.3468 16.32 12.6989 16.32 13.1332C16.32 13.5675 16.6721 13.9195 17.1064 13.9195Z" fill="currentColor"/>
<path d="M0.786383 16.3706C1.22069 16.3706 1.57277 16.0186 1.57277 15.5843C1.57277 15.1499 1.22069 14.7979 0.786383 14.7979C0.352076 14.7979 0 15.1499 0 15.5843C0 16.0186 0.352076 16.3706 0.786383 16.3706Z" fill="currentColor"/>
</g>
<defs>
<clipPath id="clip0_359_732">
<rect width="24" height="24" fill="white" transform="translate(0 0.5)"/>
</clipPath>
</defs>
</svg>
